<svg width="150" height="27" viewBox="0 0 150 27" fill="none" xmlns="http://www.w3.org/2000/svg">
<path d="M27.5625 0.225241C27.2891 0.0123868 26.9336 -0.0548301 26.6 0.0459953C25.3313 0.42129 23.718 0.314863 21.6727 0.180429C20.3984 0.096408 18.9492 0.001184 17.2813 0.001184C15.9742 0.001184 14.8039 0.589332 14 1.52477C13.1961 0.589332 12.0258 0.001184 10.7188 0.001184C9.05081 0.001184 7.6016 0.096408 6.32191 0.180429C4.2766 0.314863 2.66333 0.415689 1.39458 0.0459953C1.06645 -0.0548301 0.710985 0.0123868 0.437548 0.225241C0.164111 0.438094 4.88454e-05 0.768578 4.88454e-05 1.12147V19.707C-0.0054199 20.9057 0.448486 22.0315 1.27973 22.883C2.10551 23.7344 3.20473 24.1993 4.37504 24.1993H12.9063C12.9063 24.8154 13.3985 25.3196 14 25.3196C14.6016 25.3196 15.0938 24.8154 15.0938 24.1993V4.48232C15.0938 3.2444 16.0727 2.24175 17.2813 2.24175C18.8781 2.24175 20.2945 2.33137 21.5414 2.41539C23.1711 2.52182 24.5547 2.61144 25.8125 2.47141V19.7182C25.8125 20.3343 26.3047 20.8384 26.9062 20.8384C27.5078 20.8384 28 20.3343 28 19.7182V1.12147C28 0.768578 27.8414 0.438094 27.5625 0.225241ZM2.18754 2.47141C3.44536 2.61144 4.82895 2.52182 6.45863 2.41539C7.7055 2.33137 9.12191 2.24175 10.7188 2.24175C11.9274 2.24175 12.9063 3.2444 12.9063 4.48232V17.5336C12.7313 17.4944 12.5453 17.4776 12.3594 17.4776H4.37504C3.16645 17.4776 2.18754 16.4749 2.18754 15.237V2.47141ZM4.37504 21.9587C3.78989 21.9587 3.23754 21.7235 2.82739 21.2978C2.41723 20.8721 2.18754 20.3119 2.18754 19.707V19.1132C2.83286 19.4941 3.5766 19.7182 4.37504 19.7182H12.3594C12.6602 19.7182 12.9063 19.9702 12.9063 20.2783V21.9587H4.37504ZM21.5524 10.3414C21.3664 9.9773 21 9.75325 20.6008 9.74764C20.2016 9.74204 19.8297 9.9605 19.6328 10.3134L17.3688 14.4136C17.2758 14.5817 17.2266 14.7721 17.2266 14.9626V23.6392C17.2266 25.4932 18.6977 27 20.5078 27C22.318 27 23.7891 25.4932 23.7891 23.6392V14.9514C23.7891 14.7665 23.7453 14.5873 23.6633 14.4248L21.5524 10.3414ZM20.5516 13.1981L21.6016 15.2258V21.1185H19.4141V15.265L20.5516 13.1981ZM20.5078 24.7594C19.9063 24.7594 19.4141 24.2553 19.4141 23.6392V23.3591H21.6016V23.6392C21.6016 24.2553 21.1094 24.7594 20.5078 24.7594Z" fill="#F65D4E"/>
<path d="M42.1383 20.4942V17.491H46.9645C47.8436 17.491 48.5117 17.254 48.9689 16.7798C49.426 16.288 49.6546 15.6207 49.6546 14.7777C49.6546 13.9347 49.426 13.2849 48.9689 12.8282C48.5117 12.3541 47.8436 12.117 46.9645 12.117H42.1383V9.82508H46.7008C47.9843 9.82508 49.1271 9.98314 50.1293 10.2993C51.149 10.5978 51.9402 11.1071 52.5028 11.8272C53.083 12.5472 53.3731 13.5132 53.3731 14.725V15.0938C53.3731 16.2353 53.1182 17.21 52.6083 18.0179C52.116 18.8082 51.3688 19.4229 50.3666 19.862C49.382 20.2835 48.1601 20.4942 46.7008 20.4942H42.1383ZM39 20.4942V1H42.6658V20.4942H39ZM42.1383 11.5111V9.21918H46.2525C47.1491 9.21918 47.8085 8.98209 48.2304 8.5079C48.6524 8.03372 48.8634 7.40147 48.8634 6.61117C48.8634 5.82086 48.6524 5.18862 48.2304 4.71444C47.8085 4.24025 47.1491 4.00316 46.2525 4.00316H42.1383V1H45.9096C48.0898 1 49.7425 1.45662 50.8677 2.36986C52.0105 3.2831 52.5819 4.5915 52.5819 6.29505V6.66386C52.5819 7.8581 52.2918 8.81524 51.7116 9.5353C51.149 10.2378 50.3666 10.7471 49.3645 11.0632C48.3623 11.3618 47.2107 11.5111 45.9096 11.5111H42.1383Z" fill="black"/>
<path d="M63.6471 20.863C62.3812 20.863 61.2648 20.661 60.2978 20.2571C59.3308 19.8532 58.5132 19.3087 57.8451 18.6238C57.177 17.9213 56.6671 17.131 56.3155 16.2529C55.9814 15.3748 55.8144 14.4615 55.8144 13.5132V12.96C55.8144 11.9765 55.9902 11.0457 56.3419 10.1675C56.7111 9.27186 57.2297 8.48156 57.8979 7.79663C58.5835 7.09413 59.4099 6.5497 60.3769 6.16333C61.3439 5.7594 62.434 5.55743 63.6471 5.55743C64.8602 5.55743 65.9503 5.7594 66.9173 6.16333C67.8843 6.5497 68.7019 7.09413 69.37 7.79663C70.0556 8.48156 70.5743 9.27186 70.9259 10.1675C71.2776 11.0457 71.4534 11.9765 71.4534 12.96V13.5132C71.4534 14.4615 71.2776 15.3748 70.9259 16.2529C70.5919 17.131 70.0908 17.9213 69.4227 18.6238C68.7546 19.3087 67.937 19.8532 66.97 20.2571C66.0031 20.661 64.8954 20.863 63.6471 20.863ZM63.6471 17.7281C64.5438 17.7281 65.2998 17.535 65.9151 17.1486C66.5305 16.7446 66.9964 16.209 67.3129 15.5416C67.6294 14.8567 67.7876 14.0839 67.7876 13.2234C67.7876 12.3453 67.6206 11.5725 67.2865 10.9052C66.97 10.2202 66.4953 9.68458 65.8624 9.29821C65.247 8.89427 64.5086 8.69231 63.6471 8.69231C62.7856 8.69231 62.0384 8.89427 61.4054 9.29821C60.7901 9.68458 60.3153 10.2202 59.9813 10.9052C59.6472 11.5725 59.4802 12.3453 59.4802 13.2234C59.4802 14.0839 59.6385 14.8567 59.9549 15.5416C60.289 16.209 60.7637 16.7446 61.379 17.1486C61.9944 17.535 62.7504 17.7281 63.6471 17.7281Z" fill="black"/>
<path d="M81.5465 20.863C80.2806 20.863 79.1642 20.661 78.1972 20.2571C77.2302 19.8532 76.4126 19.3087 75.7445 18.6238C75.0764 17.9213 74.5665 17.131 74.2149 16.2529C73.8808 15.3748 73.7138 14.4615 73.7138 13.5132V12.96C73.7138 11.9765 73.8896 11.0457 74.2413 10.1675C74.6105 9.27186 75.1292 8.48156 75.7973 7.79663C76.483 7.09413 77.3093 6.5497 78.2763 6.16333C79.2433 5.7594 80.3334 5.55743 81.5465 5.55743C82.7596 5.55743 83.8497 5.7594 84.8167 6.16333C85.7837 6.5497 86.6013 7.09413 87.2694 7.79663C87.9551 8.48156 88.4737 9.27186 88.8254 10.1675C89.177 11.0457 89.3528 11.9765 89.3528 12.96V13.5132C89.3528 14.4615 89.177 15.3748 88.8254 16.2529C88.4913 17.131 87.9902 17.9213 87.3221 18.6238C86.654 19.3087 85.8365 19.8532 84.8695 20.2571C83.9025 20.661 82.7948 20.863 81.5465 20.863ZM81.5465 17.7281C82.4432 17.7281 83.1992 17.535 83.8145 17.1486C84.4299 16.7446 84.8958 16.209 85.2123 15.5416C85.5288 14.8567 85.687 14.0839 85.687 13.2234C85.687 12.3453 85.52 11.5725 85.1859 10.9052C84.8695 10.2202 84.3947 9.68458 83.7618 9.29821C83.1464 8.89427 82.408 8.69231 81.5465 8.69231C80.685 8.69231 79.9378 8.89427 79.3048 9.29821C78.6895 9.68458 78.2148 10.2202 77.8807 10.9052C77.5466 11.5725 77.3796 12.3453 77.3796 13.2234C77.3796 14.0839 77.5379 14.8567 77.8543 15.5416C78.1884 16.209 78.6631 16.7446 79.2785 17.1486C79.8938 17.535 80.6498 17.7281 81.5465 17.7281Z" fill="black"/>
<path d="M102.584 20.3625L97.7844 13.6712H95.6482L101.74 6.05795H105.564L99.947 13.0917L100.026 11.2476L106.725 20.3625H102.584ZM92.5626 20.3625V1.13172H96.2284V20.3625H92.5626Z" fill="black"/>
<path d="M115.259 20.863C113.993 20.863 112.877 20.661 111.91 20.2571C110.943 19.8532 110.125 19.3087 109.457 18.6238C108.789 17.9213 108.279 17.131 107.928 16.2529C107.594 15.3748 107.427 14.4615 107.427 13.5132V12.96C107.427 11.9765 107.602 11.0457 107.954 10.1675C108.323 9.27186 108.842 8.48156 109.51 7.79663C110.196 7.09413 111.022 6.5497 111.989 6.16333C112.956 5.7594 114.046 5.55743 115.259 5.55743C116.472 5.55743 117.562 5.7594 118.529 6.16333C119.496 6.5497 120.314 7.09413 120.982 7.79663C121.668 8.48156 122.186 9.27186 122.538 10.1675C122.89 11.0457 123.065 11.9765 123.065 12.96V13.5132C123.065 14.4615 122.89 15.3748 122.538 16.2529C122.204 17.131 121.703 17.9213 121.035 18.6238C120.367 19.3087 119.549 19.8532 118.582 20.2571C117.615 20.661 116.507 20.863 115.259 20.863ZM115.259 17.7281C116.156 17.7281 116.912 17.535 117.527 17.1486C118.143 16.7446 118.609 16.209 118.925 15.5416C119.241 14.8567 119.4 14.0839 119.4 13.2234C119.4 12.3453 119.233 11.5725 118.899 10.9052C118.582 10.2202 118.107 9.68458 117.474 9.29821C116.859 8.89427 116.121 8.69231 115.259 8.69231C114.398 8.69231 113.65 8.89427 113.018 9.29821C112.402 9.68458 111.927 10.2202 111.593 10.9052C111.259 11.5725 111.092 12.3453 111.092 13.2234C111.092 14.0839 111.251 14.8567 111.567 15.5416C111.901 16.209 112.376 16.7446 112.991 17.1486C113.607 17.535 114.363 17.7281 115.259 17.7281Z" fill="black"/>
<path d="M126.275 20.3625V6.05795H129.176V12.117H129.097C129.097 10.0622 129.537 8.5079 130.416 7.45416C131.295 6.40042 132.587 5.87355 134.293 5.87355H134.82V9.06112H133.818C132.587 9.06112 131.629 9.3948 130.943 10.0622C130.275 10.712 129.941 11.6603 129.941 12.9073V20.3625H126.275Z" fill="black"/>
<path d="M137.288 26V22.8651H139.978C140.488 22.8651 140.91 22.7949 141.244 22.6544C141.596 22.5314 141.886 22.3207 142.115 22.0221C142.343 21.7411 142.519 21.346 142.642 20.8367L146.492 6.05795H150L145.754 21.627C145.473 22.6983 145.077 23.5501 144.567 24.1823C144.057 24.8321 143.398 25.2975 142.589 25.5785C141.798 25.8595 140.814 26 139.636 26H137.288ZM141.745 20.0464V17.1486H144.805V20.0464H141.745ZM140.506 20.0464L135.864 6.05795H139.556L143.961 20.0464H140.506Z" fill="black"/>
</svg>
